<?xml version="1.0" standalone="no"?>
<!DOCTYPE svg PUBLIC "-//W3C//DTD SVG 20010904//EN"
 "http://www.w3.org/TR/2001/REC-SVG-20010904/DTD/svg10.dtd">
<svg version="1.0" xmlns="http://www.w3.org/2000/svg"
 width="500.000000pt" height="500.000000pt" viewBox="0 0 500.000000 500.000000"
 preserveAspectRatio="xMidYMid meet">

<g transform="translate(0.000000,500.000000) scale(0.100000,-0.100000)"
fill="#000000" stroke="none">
<path d="M2461 3401 c27 -37 21 -82 -20 -139 -76 -104 -89 -169 -45 -221 37
-45 57 -41 32 7 -10 20 -23 36 -28 35 -32 -9 10 100 52 134 12 10 14 5 14 -35
-1 -41 2 -47 22 -50 25 -4 28 -19 7 -46 -34 -45 -11 -39 40 10 58 56 62 66 45
110 -9 22 -8 31 5 43 14 14 17 14 25 1 7 -11 10 -4 10 26 0 27 -7 50 -20 65
l-19 24 -1 -37 c0 -21 5 -38 10 -38 6 0 10 -5 10 -11 0 -6 -9 -8 -21 -4 -27 9
-39 -8 -39 -57 0 -41 -14 -56 -35 -38 -21 17 -19 35 11 96 23 47 25 57 14 88
-12 38 -43 66 -73 66 -16 0 -16 -2 4 -29z"/>
<path d="M2396 3345 c15 -24 15 -28 0 -69 -9 -24 -24 -47 -33 -50 -11 -4 -14
-2 -9 9 3 8 1 15 -4 15 -18 0 -30 -39 -30 -95 0 -31 -5 -66 -11 -77 -11 -20
-12 -21 -24 -4 -12 16 -14 16 -20 -5 -4 -12 -1 -33 6 -48 7 -14 13 -27 14 -28
0 -1 13 -5 29 -9 29 -7 29 -7 13 17 -31 44 -15 53 33 17 16 -12 32 -19 36 -16
3 4 -3 11 -14 17 -11 6 -26 27 -32 46 -14 41 -5 75 40 157 33 59 38 108 14
132 -23 24 -27 19 -8 -9z"/>
<path d="M2651 3237 c-2 -51 -28 -95 -81 -133 -46 -33 -70 -60 -70 -80 0 -4 9
5 21 19 12 16 41 33 70 41 27 8 63 23 79 32 16 10 33 15 37 10 16 -15 -16 -41
-63 -52 l-49 -11 47 -7 c80 -12 148 35 148 104 0 27 -27 80 -41 80 -6 0 -7 -5
-4 -10 11 -18 -24 -62 -46 -57 -12 3 -20 -1 -24 -13 -3 -10 -12 -24 -20 -30
-13 -11 -13 -6 1 25 12 29 13 46 6 74 -9 33 -10 34 -11 8z"/>
<path d="M2848 3149 c31 -33 -4 -75 -98 -119 l-45 -21 40 7 c106 18 173 96
113 133 -18 10 -20 11 -10 0z"/>
<path d="M2865 3050 c-3 -5 1 -10 9 -10 9 0 16 5 16 10 0 6 -4 10 -9 10 -6 0
-13 -4 -16 -10z"/>
<path d="M2187 3012 c-14 -21 1 -58 28 -70 28 -13 103 -14 150 -2 24 6 17 8
-33 9 -79 1 -129 21 -134 53 -2 17 -5 19 -11 10z"/>
<path d="M2200 2920 c0 -6 7 -10 15 -10 8 0 15 2 15 4 0 2 -7 6 -15 10 -8 3
-15 1 -15 -4z"/>
</g>
</svg>
